<?xml version="1.0" encoding="UTF-8"?>
<svg width="1600px" height="1200px" viewBox="0 0 1600 1200" version="1.1" xmlns="http://www.w3.org/2000/svg" xmlns:xlink="http://www.w3.org/1999/xlink">
    <!-- Generator: Sketch 51.3 (57544) - http://www.bohemiancoding.com/sketch -->
    <title>Custom Preset</title>
    <desc>Created with Sketch.</desc>
    <defs></defs>
    <g id="Custom-Preset" stroke="none" stroke-width="1" fill="none" fill-rule="evenodd">
        <g id="Alienation" transform="translate(300.000000, 523.000000)" fill="#fff" fill-rule="nonzero">
            <path d="M97.7791116,151.260504 L81.8607443,114.729892 L22.4729892,114.729892 L6.55462185,151.260504 L0.840336134,151.260504 L63.4933974,8.40336134 L75.942377,8.40336134 L138.391357,151.260504 L97.7791116,151.260504 Z M24.3097239,110.648259 L80.2280912,110.648259 L52.2689076,46.362545 L24.3097239,110.648259 Z M150.02401,151.260504 L150.02401,8.19927971 L188.391357,2.28091236 L188.391357,151.260504 L150.02401,151.260504 Z M230.02401,40.4441777 C218.187275,40.4441777 209.411765,31.8727491 209.411765,20.4441777 C209.411765,9.01560624 218.187275,0.648259304 230.02401,0.648259304 C241.248499,0.648259304 249.411765,9.01560624 249.411765,20.4441777 C249.411765,31.8727491 241.248499,40.4441777 230.02401,40.4441777 Z M210.228091,151.260504 L210.228091,54.1176471 L248.595438,48.1992797 L248.595438,151.260504 L210.228091,151.260504 Z M335.738295,146.770708 C347.57503,146.770708 358.187275,141.056423 364.105642,131.056423 L368.79952,131.056423 C362.472989,144.321729 345.12605,153.301321 324.921969,153.301321 C289.819928,153.301321 264.921969,130.444178 264.921969,100.036014 C264.921969,70.0360144 289.411765,47.1788715 320.02401,47.1788715 C350.228091,47.1788715 371.860744,69.2196879 371.860744,98.607443 L304.105642,98.607443 C304.717887,131.872749 315.942377,146.770708 335.738295,146.770708 Z M320.840336,51.2605042 C310.432173,51.2605042 304.309724,69.8319328 304.105642,94.5258103 L336.35054,94.5258103 C335.942377,67.1788715 330.228091,51.2605042 320.840336,51.2605042 Z M459.615846,47.1788715 C479.003601,47.1788715 493.697479,61.4645858 493.697479,80.4441777 L493.697479,151.260504 L455.330132,151.260504 L455.330132,71.6686675 C455.330132,64.1176471 450.432173,58.4033613 443.901561,58.4033613 C436.554622,58.4033613 429.411765,64.3217287 425.534214,73.5054022 L425.534214,151.260504 L387.166867,151.260504 L387.166867,54.1176471 L425.534214,48.1992797 L425.534214,64.9339736 C432.472989,54.3217287 445.12605,47.1788715 459.615846,47.1788715 Z M560.840336,47.1788715 C591.860744,47.1788715 614.105642,63.9135654 614.105642,85.9543818 L614.105642,151.260504 L575.738295,151.260504 L575.738295,137.587035 C568.79952,146.97479 555.534214,153.301321 541.452581,153.301321 C521.860744,153.301321 506.758703,140.852341 506.758703,124.52581 C506.758703,107.587035 524.717887,94.9339736 548.595438,94.9339736 C559.411765,94.9339736 570.432173,97.5870348 575.738295,101.260504 L575.738295,76.7707083 C575.738295,62.2809124 565.942377,53.5054022 549.207683,53.5054022 C533.289316,53.5054022 519.411765,62.8931573 519.411765,75.5462185 L515.12605,75.5462185 C515.12605,59.4237695 534.921969,47.1788715 560.840336,47.1788715 Z M560.432173,141.056423 C566.758703,141.056423 572.268908,137.587035 575.738295,131.872749 L575.738295,105.7503 C572.881152,103.301321 568.595438,101.668667 563.697479,101.668667 C552.881152,101.668667 545.942377,109.219688 545.942377,122.076831 C545.942377,133.301321 551.656663,141.056423 560.432173,141.056423 Z M696.758703,134.729892 L701.044418,134.729892 C701.044418,145.138055 687.57503,153.301321 669.819928,153.301321 C649.615846,153.301321 635.12605,141.056423 635.12605,124.729892 L635.12605,53.3013205 L623.493397,53.3013205 L623.493397,49.2196879 L635.12605,49.2196879 L635.12605,27.5870348 L673.493397,19.8319328 L673.493397,49.2196879 L697.166867,49.2196879 L697.166867,53.3013205 L673.493397,53.3013205 L673.493397,130.852341 C673.493397,138.811525 678.391357,144.729892 685.12605,144.729892 C691.656663,144.729892 696.758703,140.444178 696.758703,134.729892 Z M729.411765,40.4441777 C717.57503,40.4441777 708.79952,31.8727491 708.79952,20.4441777 C708.79952,9.01560624 717.57503,0.648259304 729.411765,0.648259304 C740.636255,0.648259304 748.79952,9.01560624 748.79952,20.4441777 C748.79952,31.8727491 740.636255,40.4441777 729.411765,40.4441777 Z M709.615846,151.260504 L709.615846,54.1176471 L747.983193,48.1992797 L747.983193,151.260504 L709.615846,151.260504 Z M821.044418,153.301321 C788.79952,153.301321 764.309724,130.444178 764.309724,100.240096 C764.309724,70.0360144 788.79952,47.1788715 821.044418,47.1788715 C853.493397,47.1788715 877.779112,70.0360144 877.779112,100.240096 C877.779112,130.444178 853.493397,153.301321 821.044418,153.301321 Z M821.044418,149.219688 C832.064826,149.219688 838.595438,131.260504 838.595438,100.240096 C838.595438,69.2196879 832.064826,51.2605042 821.044418,51.2605042 C810.02401,51.2605042 803.493397,69.2196879 803.493397,100.240096 C803.493397,131.260504 810.02401,149.219688 821.044418,149.219688 Z M965.534214,47.1788715 C984.921969,47.1788715 999.615846,61.4645858 999.615846,80.4441777 L999.615846,151.260504 L961.248499,151.260504 L961.248499,71.6686675 C961.248499,64.1176471 956.35054,58.4033613 949.819928,58.4033613 C942.472989,58.4033613 935.330132,64.3217287 931.452581,73.5054022 L931.452581,151.260504 L893.085234,151.260504 L893.085234,54.1176471 L931.452581,48.1992797 L931.452581,64.9339736 C938.391357,54.3217287 951.044418,47.1788715 965.534214,47.1788715 Z" id="Shape"></path>
        </g>
    </g>
</svg>