<?xml version="1.0" encoding="UTF-8"?>
<svg width="800px" height="1000px" viewBox="0 0 800 1000" version="1.1" xmlns="http://www.w3.org/2000/svg" xmlns:xlink="http://www.w3.org/1999/xlink">
    <!-- Generator: Sketch 51.3 (57544) - http://www.bohemiancoding.com/sketch -->
    <title>Custom Preset</title>
    <desc>Created with Sketch.</desc>
    <defs></defs>
    <g id="Custom-Preset" stroke="none" stroke-width="1" fill="none" fill-rule="evenodd">
        <g id="Alienation" transform="translate(250.000000, 477.000000)" fill="#fff" fill-rule="nonzero">
            <path d="M29.3337335,45.3781513 L24.5582233,34.4189676 L6.74189676,34.4189676 L1.96638655,45.3781513 L0.25210084,45.3781513 L19.0480192,2.5210084 L22.7827131,2.5210084 L41.517407,45.3781513 L29.3337335,45.3781513 Z M7.29291717,33.1944778 L24.0684274,33.1944778 L15.6806723,13.9087635 L7.29291717,33.1944778 Z M45.0072029,45.3781513 L45.0072029,2.45978391 L56.517407,0.684273709 L56.517407,45.3781513 L45.0072029,45.3781513 Z M69.0072029,12.1332533 C65.4561825,12.1332533 62.8235294,9.56182473 62.8235294,6.1332533 C62.8235294,2.70468187 65.4561825,0.194477791 69.0072029,0.194477791 C72.3745498,0.194477791 74.8235294,2.70468187 74.8235294,6.1332533 C74.8235294,9.56182473 72.3745498,12.1332533 69.0072029,12.1332533 Z M63.0684274,45.3781513 L63.0684274,16.2352941 L74.5786315,14.4597839 L74.5786315,45.3781513 L63.0684274,45.3781513 Z M100.721489,44.0312125 C104.272509,44.0312125 107.456182,42.3169268 109.231693,39.3169268 L110.639856,39.3169268 C108.741897,43.2965186 103.537815,45.9903962 97.4765906,45.9903962 C86.9459784,45.9903962 79.4765906,39.1332533 79.4765906,30.0108043 C79.4765906,21.0108043 86.8235294,14.1536615 96.0072029,14.1536615 C105.068427,14.1536615 111.558223,20.7659064 111.558223,29.5822329 L91.2316927,29.5822329 C91.4153661,39.5618247 94.7827131,44.0312125 100.721489,44.0312125 Z M96.2521008,15.3781513 C93.1296519,15.3781513 91.2929172,20.9495798 91.2316927,28.3577431 L100.905162,28.3577431 C100.782713,20.1536615 99.0684274,15.3781513 96.2521008,15.3781513 Z M137.884754,14.1536615 C143.70108,14.1536615 148.109244,18.4393758 148.109244,24.1332533 L148.109244,45.3781513 L136.59904,45.3781513 L136.59904,21.5006002 C136.59904,19.2352941 135.129652,17.5210084 133.170468,17.5210084 C130.966387,17.5210084 128.823529,19.2965186 127.660264,22.0516206 L127.660264,45.3781513 L116.15006,45.3781513 L116.15006,16.2352941 L127.660264,14.4597839 L127.660264,19.4801921 C129.741897,16.2965186 133.537815,14.1536615 137.884754,14.1536615 Z M168.252101,14.1536615 C177.558223,14.1536615 184.231693,19.1740696 184.231693,25.7863145 L184.231693,45.3781513 L172.721489,45.3781513 L172.721489,41.2761104 C170.639856,44.092437 166.660264,45.9903962 162.435774,45.9903962 C156.558223,45.9903962 152.027611,42.2557023 152.027611,37.3577431 C152.027611,32.2761104 157.415366,28.4801921 164.578631,28.4801921 C167.823529,28.4801921 171.129652,29.2761104 172.721489,30.3781513 L172.721489,23.0312125 C172.721489,18.6842737 169.782713,16.0516206 164.762305,16.0516206 C159.986795,16.0516206 155.823529,18.8679472 155.823529,22.6638655 L154.537815,22.6638655 C154.537815,17.8271309 160.476591,14.1536615 168.252101,14.1536615 Z M168.129652,42.3169268 C170.027611,42.3169268 171.680672,41.2761104 172.721489,39.5618247 L172.721489,31.72509 C171.864346,30.9903962 170.578631,30.5006002 169.109244,30.5006002 C165.864346,30.5006002 163.782713,32.7659064 163.782713,36.6230492 C163.782713,39.9903962 165.496999,42.3169268 168.129652,42.3169268 Z M209.027611,40.4189676 L210.313325,40.4189676 C210.313325,43.5414166 206.272509,45.9903962 200.945978,45.9903962 C194.884754,45.9903962 190.537815,42.3169268 190.537815,37.4189676 L190.537815,15.9903962 L187.048019,15.9903962 L187.048019,14.7659064 L190.537815,14.7659064 L190.537815,8.27611044 L202.048019,5.94957983 L202.048019,14.7659064 L209.15006,14.7659064 L209.15006,15.9903962 L202.048019,15.9903962 L202.048019,39.2557023 C202.048019,41.6434574 203.517407,43.4189676 205.537815,43.4189676 C207.496999,43.4189676 209.027611,42.1332533 209.027611,40.4189676 Z M218.823529,12.1332533 C215.272509,12.1332533 212.639856,9.56182473 212.639856,6.1332533 C212.639856,2.70468187 215.272509,0.194477791 218.823529,0.194477791 C222.190876,0.194477791 224.639856,2.70468187 224.639856,6.1332533 C224.639856,9.56182473 222.190876,12.1332533 218.823529,12.1332533 Z M212.884754,45.3781513 L212.884754,16.2352941 L224.394958,14.4597839 L224.394958,45.3781513 L212.884754,45.3781513 Z M246.313325,45.9903962 C236.639856,45.9903962 229.292917,39.1332533 229.292917,30.0720288 C229.292917,21.0108043 236.639856,14.1536615 246.313325,14.1536615 C256.048019,14.1536615 263.333733,21.0108043 263.333733,30.0720288 C263.333733,39.1332533 256.048019,45.9903962 246.313325,45.9903962 Z M246.313325,44.7659064 C249.619448,44.7659064 251.578631,39.3781513 251.578631,30.0720288 C251.578631,20.7659064 249.619448,15.3781513 246.313325,15.3781513 C243.007203,15.3781513 241.048019,20.7659064 241.048019,30.0720288 C241.048019,39.3781513 243.007203,44.7659064 246.313325,44.7659064 Z M289.660264,14.1536615 C295.476591,14.1536615 299.884754,18.4393758 299.884754,24.1332533 L299.884754,45.3781513 L288.37455,45.3781513 L288.37455,21.5006002 C288.37455,19.2352941 286.905162,17.5210084 284.945978,17.5210084 C282.741897,17.5210084 280.59904,19.2965186 279.435774,22.0516206 L279.435774,45.3781513 L267.92557,45.3781513 L267.92557,16.2352941 L279.435774,14.4597839 L279.435774,19.4801921 C281.517407,16.2965186 285.313325,14.1536615 289.660264,14.1536615 Z"></path>
        </g>
    </g>
</svg>